<svg width="324" height="324" viewBox="0 0 324 324" fill="none" xmlns="http://www.w3.org/2000/svg">
<path d="M52 98.5L161.5 161.5M52 98.5V161M52 98.5L106.75 67.25M161.5 36L216.5 67.25M161.5 36L106.75 67.25M161.5 36V289M271.5 98.5L216.5 67.25M271.5 98.5L216.5 130M271.5 98.5V161M271.5 223.5L161.5 161.5M271.5 223.5L216.5 256.25M271.5 223.5V161M161.5 289L216.5 256.25M161.5 289L106.75 256.25M52 223.5L106.75 192.5M52 223.5V161M52 223.5L106.75 256.25M161.5 161.5L106.75 192.5M161.5 161.5L216.5 130M216.5 256.25L106.75 192.5M216.5 256.25V67.25M106.75 192.5L52 161M52 161L216.5 67.25M106.75 67.25L216.5 130M106.75 67.25V256.25M216.5 130L271.5 161M106.75 256.25L271.5 161" stroke="black"/>
<path d="M162 103L112 189M162 103V161M162 103L209 189M112 189L162 161M112 189L162 215.542M162 161L209 189M162 161V215.542M209 189L162 215.542M162 224.739L112 195.475L162 266.043M162 224.739L212 195.475L162 266.043M162 224.739V266.043" stroke="url(#paint0_linear_4_491)" stroke-width="1.7"/>
<defs>
<linearGradient id="paint0_linear_4_491" x1="162" y1="103" x2="162" y2="266.043" gradientUnits="userSpaceOnUse">
<stop stop-color="#3350B6"/>
<stop offset="0.927083" stop-color="#B418B7"/>
</linearGradient>
</defs>
</svg>
